HIERARCHY
ROOT SimulationBone
{
	OFFSET 0.000000 0.000000 0.000000
	CHANNELS 6 Xposition Yposition Zposition Zrotation Yrotation Xrotation 
	JOINT Hips
	{
		OFFSET 0.000000 0.000000 0.000000
		CHANNELS 6 Xposition Yposition Zposition Zrotation Yrotation Xrotation 
		JOINT RightUpLeg
		{
			OFFSET 0.103457 1.857834 10.548504
			CHANNELS 3 Zrotation Yrotation Xrotation
			JOINT RightLeg
			{
				OFFSET 43.499996 -0.000046 0.000000
				CHANNELS 3 Zrotation Yrotation Xrotation
				JOINT RightFoot
				{
					OFFSET 42.372192 0.000027 0.000002
					CHANNELS 3 Zrotation Yrotation Xrotation
					JOINT RightToe
					{
						OFFSET 17.299994 -0.000003 -0.000001
						CHANNELS 3 Zrotation Yrotation Xrotation
						End Site
						{
							OFFSET 0.000000 0.000000 0.000000
						}
					}
				}
			}
		}
		JOINT LeftUpLeg
		{
			OFFSET 0.103456 1.857832 -10.548504
			CHANNELS 3 Zrotation Yrotation Xrotation
			JOINT LeftLeg
			{
				OFFSET 43.500046 -0.000011 0.000010
				CHANNELS 3 Zrotation Yrotation Xrotation
				JOINT LeftFoot
				{
					OFFSET 42.372261 -0.000034 0.000021
					CHANNELS 3 Zrotation Yrotation Xrotation
					JOINT LeftToe
					{
						OFFSET 17.300011 0.000001 0.000002
						CHANNELS 3 Zrotation Yrotation Xrotation
						End Site
						{
							OFFSET 0.000000 0.000000 0.000000
						}
					}
				}
			}
		}
		JOINT Spine
		{
			OFFSET 6.901965 -2.603721 0.000001
			CHANNELS 3 Zrotation Yrotation Xrotation
			JOINT Spine1
			{
				OFFSET 12.588100 0.000000 -0.000000
				CHANNELS 3 Zrotation Yrotation Xrotation
				JOINT Spine2
				{
					OFFSET 12.343206 0.000005 0.000000
					CHANNELS 3 Zrotation Yrotation Xrotation
					JOINT Neck
					{
						OFFSET 25.832893 -0.000008 0.000000
						CHANNELS 3 Zrotation Yrotation Xrotation
						JOINT Head
						{
							OFFSET 11.766617 0.000009 0.000001
							CHANNELS 3 Zrotation Yrotation Xrotation
							End Site
							{
								OFFSET 0.000000 0.000000 0.000000
							}
						}
					}
					JOINT RightShoulder
					{
						OFFSET 19.745899 -1.480394 6.000106
						CHANNELS 3 Zrotation Yrotation Xrotation
						JOINT RightArm
						{
							OFFSET 11.284122 -0.000030 -0.000014
							CHANNELS 3 Zrotation Yrotation Xrotation
							JOINT RightForeArm
							{
								OFFSET 33.000050 0.000020 0.000016
								CHANNELS 3 Zrotation Yrotation Xrotation
								JOINT RightHand
								{
									OFFSET 25.200014 -0.000003 0.000011
									CHANNELS 3 Zrotation Yrotation Xrotation
									End Site
									{
										OFFSET 0.000000 0.000000 0.000000
									}
								}
							}
						}
					}
					JOINT LeftShoulder
					{
						OFFSET 19.746094 -1.480381 -6.000073
						CHANNELS 3 Zrotation Yrotation Xrotation
						JOINT LeftArm
						{
							OFFSET 11.284140 -0.000016 -0.000006
							CHANNELS 3 Zrotation Yrotation Xrotation
							JOINT LeftForeArm
							{
								OFFSET 33.000088 0.000015 0.000002
								CHANNELS 3 Zrotation Yrotation Xrotation
								JOINT LeftHand
								{
									OFFSET 25.199776 0.000133 0.000416
									CHANNELS 3 Zrotation Yrotation Xrotation
									End Site
									{
										OFFSET 0.000000 0.000000 0.000000
									}
								}
							}
						}
					}
				}
			}
		}
	}
}
MOTION
Frames: 14
Frame Time: 0.016667
-14.602916 0.000000 -465.157791 0.000000 85.887088 0.000000 -2.280796 90.794739 -1.276138 93.011555 -6.066678 -177.871212 177.098172 5.200996 170.050824 -23.450283 -4.216370 -12.564829 87.276867 8.229860 -2.689890 21.454558 0.003097 0.000016 169.221666 22.146895 -174.067562 -37.258674 -0.070252 3.978185 81.827393 0.673624 15.316602 21.454551 -0.003090 0.000001 10.099516 -2.010953 0.268742 10.186162 -4.037636 0.359477 9.867207 -4.035511 0.383879 -5.766996 5.859628 5.711118 -24.658841 -5.740562 10.355380 138.770044 -69.838394 41.133900 -7.925690 54.969323 38.136691 -31.547280 -18.287509 1.497589 8.803544 -3.350493 17.678087 167.985783 77.073400 -10.835919 -30.175464 -56.373832 -28.974891 -40.190956 18.388300 -1.683854 11.303762 12.585661 -4.240704 
-14.581123 0.000000 -464.936357 0.000000 86.444335 0.000000 -1.884307 90.800139 -1.362068 93.524945 -6.042275 -178.457169 177.593378 5.276866 169.969854 -23.536406 -4.022788 -12.543394 87.226494 8.188595 -2.825986 21.454558 0.003106 0.000019 168.178380 21.991489 -174.348528 -39.834255 -0.474295 4.462305 80.872976 0.499761 15.506494 21.454551 -0.003093 -0.000000 10.049421 -2.027832 0.247596 10.086689 -4.069375 0.317521 9.767721 -4.067523 0.342119 -5.595224 5.586692 5.731980 -24.029221 -5.466205 10.109060 137.821964 -69.566072 42.122996 -9.055362 55.056099 35.484284 -30.509618 -18.499321 1.489345 11.166739 -4.328393 15.334446 166.665674 77.314766 -12.171748 -31.513739 -57.371443 -27.699951 -40.816083 18.354172 -1.698841 11.731082 14.019152 -3.976547 
-14.503616 0.000000 -464.741107 0.000000 87.008200 0.000000 -1.526814 90.800980 -1.418408 94.022158 -6.025377 -178.990794 178.024468 5.301503 169.931446 -23.703337 -3.849976 -12.504802 87.147633 8.131514 -2.981420 21.454558 0.003107 0.000019 167.203659 21.904010 -174.915844 -42.356072 -0.649322 4.405848 80.615684 0.576541 15.470501 21.454551 -0.003093 -0.000000 9.995208 -2.041495 0.219613 9.979218 -4.094172 0.262361 9.660239 -4.092656 0.287115 -5.275339 5.261464 5.733970 -23.595560 -5.225433 9.854506 137.447037 -69.289302 42.528004 -10.277662 54.918435 32.576999 -29.745186 -18.790720 1.493075 12.618831 -4.406311 13.826513 166.395387 77.392322 -12.443922 -32.982761 -58.033807 -26.616464 -41.708518 18.325543 -1.721091 12.147372 14.556900 -3.543042 
-14.374024 0.000000 -464.570281 0.000000 87.577808 0.000000 -1.211035 90.801840 -1.448212 94.482673 -5.996933 -179.464850 178.392316 5.253754 169.897188 -23.908620 -3.697293 -12.423170 87.047323 8.044009 -3.137044 21.454557 0.003106 0.000017 166.288025 21.807216 -175.621027 -44.815143 -0.726486 3.937954 80.951270 0.844851 15.332468 21.454551 -0.003092 0.000001 9.934716 -2.049345 0.187859 9.859297 -4.107113 0.200415 9.540312 -4.105964 0.225252 -4.874125 4.940755 5.708357 -23.288874 -5.047677 9.611053 137.359808 -69.069355 42.634998 -11.570702 54.642651 29.470686 -29.307649 -19.054085 1.501167 13.406736 -4.116764 12.933650 166.665150 77.371769 -12.169918 -34.411010 -58.446928 -25.735941 -42.834526 18.282456 -1.749729 12.391308 14.406076 -3.183419 
-14.195975 0.000000 -464.422122 0.000000 88.152265 0.000000 -0.939606 90.807297 -1.454666 94.885225 -5.938678 -179.871807 178.697829 5.113013 169.828624 -24.109719 -3.563954 -12.272346 86.932639 7.911568 -3.273647 21.454557 0.003106 0.000016 165.424094 21.628696 -176.312550 -47.204700 -0.823588 3.197708 81.775381 1.248494 15.221579 21.454551 -0.003092 0.000002 9.865784 -2.048785 0.155396 9.722459 -4.103269 0.138079 9.403475 -4.102487 0.162892 -4.458187 4.681562 5.647837 -23.039891 -4.961986 9.398525 137.288563 -68.963830 42.716308 -12.932235 54.315329 26.202635 -29.251377 -19.181550 1.508307 13.813353 -3.949081 12.399491 166.930218 77.314390 -11.902187 -35.639182 -58.698876 -25.058795 -44.160177 18.204942 -1.783014 12.306403 13.777307 -3.132989 
-13.973096 0.000000 -464.294869 0.000000 88.730655 0.000000 -0.712432 90.819572 -1.441745 95.217967 -5.839196 179.792351 178.944099 4.869026 169.723319 -24.279352 -3.455487 -12.048887 86.813515 7.734070 -3.380998 21.454555 0.003110 0.000016 164.622880 21.319834 -176.866002 -49.499382 -1.019911 2.346622 82.966427 1.716000 15.254117 21.454551 -0.003096 0.000002 9.788419 -2.038038 0.124447 9.568617 -4.079280 0.079912 9.249641 -4.078843 0.104572 -4.085306 4.517168 5.551925 -22.794732 -4.975031 9.226299 137.028291 -69.010944 42.977872 -14.353573 53.989511 22.904294 -29.604012 -19.116065 1.511140 14.066080 -4.263427 11.966669 166.789216 77.271769 -12.047647 -36.560144 -58.860263 -24.574267 -45.653146 18.076599 -1.818778 11.812788 12.891258 -3.518755 
-13.709014 0.000000 -464.186766 0.000000 89.312035 0.000000 -0.518714 90.831467 -1.415960 95.509021 -5.711675 179.516946 179.141382 4.551295 169.722811 -24.451712 -3.402872 -11.840886 86.711368 7.568554 -3.485132 21.454555 0.003112 0.000017 163.961751 20.913105 -177.275470 -51.604735 -1.277723 1.604748 84.327768 2.122854 15.486173 21.454551 -0.003101 0.000001 9.711330 -2.018634 0.093922 9.415239 -4.038104 0.023247 9.096279 -4.038008 0.047653 -3.778090 4.385714 5.441917 -22.561880 -5.005344 9.061125 136.609355 -69.174439 43.391500 -15.721455 53.596308 20.158776 -30.287445 -19.004122 1.517496 14.134935 -4.979288 11.404888 166.390661 77.251408 -12.454685 -37.230144 -58.929026 -24.271657 -47.288448 17.895152 -1.856927 11.084737 12.018313 -4.084185 
-13.407359 0.000000 -464.096052 0.000000 89.895133 0.000000 -0.344192 90.837052 -1.383911 95.794581 -5.570472 179.287871 179.310000 4.197316 169.950777 -24.655724 -3.419633 -11.729609 86.640542 7.466130 -3.618347 21.454556 0.003106 0.000017 163.508068 20.451473 -177.569943 -53.436059 -1.534592 1.148130 85.652942 2.356612 15.893408 21.454550 -0.003102 0.000000 9.643903 -1.992659 0.062527 9.281167 -3.983792 -0.035037 8.962231 -3.984053 -0.010954 -3.542239 4.224051 5.340949 -22.361212 -4.976502 8.875279 136.098080 -69.404801 43.893404 -16.916041 53.082049 18.487264 -31.211275 -19.016729 1.537924 13.956219 -5.869369 10.563951 165.958690 77.251068 -12.894939 -37.745675 -58.899101 -24.126225 -49.023546 17.668340 -1.897017 10.311856 11.374483 -4.566652 
-13.071756 0.000000 -464.020969 0.000000 90.480247 0.000000 -0.172066 90.844887 -1.351263 96.101299 -5.413786 179.092239 179.509939 3.839907 170.314824 -24.836154 -3.423198 -11.678051 86.575946 7.397138 -3.800492 21.454558 0.003100 0.000017 163.230265 19.939699 -177.788280 -55.006340 -1.797905 0.938823 86.773202 2.416056 16.216239 21.454551 -0.003099 0.000000 9.589540 -1.961145 0.031431 9.173175 -3.918486 -0.092800 8.854268 -3.919102 -0.069105 -3.351248 4.060086 5.261078 -22.193884 -4.920977 8.703118 135.469328 -69.672598 44.511470 -17.914622 52.495190 17.688476 -32.338862 -19.220115 1.574181 13.576320 -6.550177 9.569047 165.488816 77.273026 -13.372813 -38.199232 -58.826396 -24.058811 -50.738189 17.430291 -1.936489 9.548727 10.882963 -5.010760 
-12.705835 0.000000 -463.959758 0.000000 91.064890 0.000000 0.008627 90.860382 -1.320866 96.440525 -5.247263 178.919830 179.783596 3.507533 170.702607 -24.943052 -3.342623 -11.634910 86.493989 7.323385 -4.040796 21.454558 0.003104 0.000016 163.093642 19.382071 -177.964232 -56.304254 -2.076474 0.854218 87.605612 2.367689 16.233514 21.454552 -0.003091 -0.000001 9.547840 -1.927024 0.001771 9.090450 -3.848114 -0.147968 8.771569 -3.849067 -0.124699 -3.179224 3.937465 5.205336 -22.049023 -4.887337 8.580286 134.709084 -69.944455 45.262561 -18.711061 51.870281 17.411931 -33.672824 -19.608937 1.627115 13.075825 -6.763630 8.635812 164.941510 77.317900 -13.928461 -38.661187 -58.769953 -23.984844 -52.316714 17.216431 -1.974806 8.817923 10.424918 -5.497918 
-12.313222 0.000000 -463.910661 0.000000 91.648700 0.000000 0.182357 90.861847 -1.287244 96.773259 -5.124443 178.768694 -179.943123 3.215901 171.139897 -25.032761 -3.250467 -11.607854 86.415655 7.254006 -4.319353 21.454558 0.003109 0.000016 163.146650 18.823301 -178.105338 -57.128319 -2.288872 0.636069 88.374095 2.395852 16.105914 21.454553 -0.003085 -0.000001 9.509194 -1.901898 -0.027923 9.013877 -3.795730 -0.204053 8.695019 -3.797027 -0.181101 -3.034296 3.871440 5.150994 -21.887971 -4.878728 8.487074 133.949843 -70.154632 46.017264 -19.265009 51.126048 17.439781 -35.314840 -19.996373 1.691896 12.621989 -6.912891 8.086530 164.368365 77.377016 -14.509623 -39.111595 -58.741749 -23.858972 -53.736328 17.040263 -2.011531 8.125200 10.017657 -5.969351 
-11.897546 0.000000 -463.871919 0.000000 92.230642 0.000000 0.335442 90.827406 -1.245002 97.060509 -5.099915 178.650332 -179.749171 2.976331 171.677039 -25.169800 -3.231830 -11.608143 86.366075 7.202053 -4.611442 21.454556 0.003108 0.000016 163.447559 18.328851 -178.204573 -57.260367 -2.352465 0.044837 89.267019 2.685249 16.097731 21.454552 -0.003085 -0.000001 9.464274 -1.896778 -0.060368 8.924965 -3.783136 -0.267015 8.606122 -3.784822 -0.244131 -2.935488 3.861641 5.071542 -21.663459 -4.877419 8.386127 133.309333 -70.256929 46.659939 -19.556016 50.195956 17.609927 -37.323330 -20.208921 1.756423 12.341163 -7.443277 8.159800 163.877744 77.428711 -15.006899 -39.496275 -58.735316 -23.669785 -55.005660 16.904161 -2.046364 7.489491 9.699931 -6.334916 
-11.462434 0.000000 -463.841773 0.000000 92.809694 0.000000 0.488963 90.761528 -1.194293 97.308676 -5.180770 178.625074 -179.614796 2.792699 172.320960 -25.344459 -3.278394 -11.603054 86.343371 7.147844 -4.901643 21.454555 0.003103 0.000016 164.013128 18.005902 -178.217339 -56.610956 -2.251091 -0.934192 90.028825 3.324688 16.491485 21.454551 -0.003087 -0.000001 9.414064 -1.911597 -0.100673 8.825904 -3.809833 -0.347043 8.507062 -3.812006 -0.323991 -2.911649 3.873228 4.950988 -21.321277 -4.828236 8.224789 132.643664 -70.306071 47.332419 -19.686843 49.197032 17.842943 -39.496206 -20.307211 1.818082 12.068102 -8.334251 8.632703 163.709019 77.407191 -15.179698 -39.714212 -58.718048 -23.502608 -56.167008 16.787649 -2.079866 7.007807 9.454047 -6.513251 
-11.011514 0.000000 -463.818465 0.000000 93.384828 0.000000 0.669087 90.691254 -1.142054 97.530072 -5.320924 178.742640 -179.479409 2.629026 173.027577 -25.487322 -3.355529 -11.540175 86.321863 7.059639 -5.165521 21.454556 0.003100 0.000016 164.879677 17.874569 -178.029061 -55.086046 -2.006745 -2.164308 90.291218 4.283283 17.346290 21.454548 -0.003086 -0.000000 9.359619 -1.934661 -0.149825 8.718784 -3.852433 -0.445206 8.399930 -3.855192 -0.421900 -2.964805 3.849242 4.783053 -20.839123 -4.671372 7.954417 131.824360 -70.361931 48.160074 -19.780839 48.276078 18.074805 -41.577550 -20.387074 1.880028 11.615089 -9.415370 9.209645 164.010335 77.273479 -14.879004 -39.693122 -58.674889 -23.446883 -57.218092 16.667121 -2.109846 6.766516 9.269117 -6.452767 
